# xmcd
#
# Track frame offsets: 
#        150
#        50765
#        90298
#        128860
#        169730
#        199925
#        227378
#        263278
#        283400
#        297258
#        324558
#
# Disc length: 4677 seconds
#
# Revision: 3
# Processed by: cddbd v1.5.2PL0 Copyright (c) Steve Scherf et al.
# Submitted via: ExactAudioCopyFreeDBPlugin 1.0
#
DISCID=9a12430b
DTITLE=Pinchas Zukerman, Marc Neikrug - Brahms: Violin Sonatas
DYEAR=1996
DGENRE=Classical - Sonata
TTITLE0=Sonata No.1, Op.78 - I. Vivace ma non troppo
TTITLE1=Sonata No.1, Op.78 - II. Adagio
TTITLE2=Sonata No.1, Op.78 - III. Allegro molto moderato
TTITLE3=Sonata No.2, Op.100 - I. Allegro amabile
TTITLE4=Sonata No.2, Op.100 - II. Andante tranquillo - Vivace
TTITLE5=Sonata No.2, Op.100 - III. Allegretto grazioso (quasi Andante)
TTITLE6=Sonata No.3, Op.108 -I. Allegro
TTITLE7=Sonata No.3, Op.108 -II. Adagio
TTITLE8=Sonata No.3, Op.108 -III. Un poco presto e con sentimento
TTITLE9=Sonata No.3, Op.108 -IV. Presto agitato
TTITLE10=Sonatensatz, WoO2 - Scherzo
EXTD=
EXTT0=
EXTT1=
EXTT2=
EXTT3=
EXTT4=
EXTT5=
EXTT6=
EXTT7=
EXTT8=
EXTT9=
EXTT10=
PLAYORDER=
